<?xml version="1.0" encoding="utf-8"?>
<!-- Generator: Adobe Illustrator 16.0.0, SVG Export Plug-In . SVG Version: 6.00 Build 0)  -->
<!DOCTYPE svg PUBLIC "-//W3C//DTD SVG 1.1//EN" "http://www.w3.org/Graphics/SVG/1.1/DTD/svg11.dtd">
<svg version="1.1" id="Capa_1" xmlns="http://www.w3.org/2000/svg" xmlns:xlink="http://www.w3.org/1999/xlink" x="0px" y="0px"
	 width="566.93px" height="566.93px" viewBox="0 0 566.93 566.93" enable-background="new 0 0 566.93 566.93" xml:space="preserve">
<g>
	<circle fill="#6C150F" cx="278.269" cy="254.595" r="221.585"/>
</g>
<g>
	<g>
		<linearGradient id="SVGID_1_" gradientUnits="userSpaceOnUse" x1="197.8921" y1="243.2939" x2="365.5361" y2="243.2939">
			<stop  offset="0" style="stop-color:#CE8401"/>
			<stop  offset="0.5067" style="stop-color:#E6A337"/>
			<stop  offset="1" style="stop-color:#FBC060"/>
		</linearGradient>
		<path fill="url(#SVGID_1_)" d="M202.379,189.178c-8.272-5.986,64.804-74.79,156.75,0c8.227-5.986,8.703,115.17,0.43,109.617
			c8.273,5.553-161.179,40.688-153.314,31.789C198.379,339.482,194.107,183.191,202.379,189.178z"/>
		<path fill="none" stroke="#CE8B0B" stroke-width="2" stroke-miterlimit="10" d="M202.379,189.178
			c-8.272-5.986,64.804-74.79,156.75,0c8.227-5.986,8.703,115.17,0.43,109.617c8.273,5.553-161.179,40.688-153.314,31.789
			C198.379,339.482,194.107,183.191,202.379,189.178z"/>
	</g>
	<g>
		<linearGradient id="SVGID_2_" gradientUnits="userSpaceOnUse" x1="200.2949" y1="373.8867" x2="365.4844" y2="373.8867">
			<stop  offset="0" style="stop-color:#CE8401"/>
			<stop  offset="0.5067" style="stop-color:#E6A337"/>
			<stop  offset="1" style="stop-color:#FBC060"/>
		</linearGradient>
		<path fill="url(#SVGID_2_)" d="M206.347,442.752c-8.069,7.24-8.069-109.666,0-105.771c-8.069-3.895,161.382-39.029,153.313-31.791
			c8.068-7.238,7.594,101.299-0.43,98.201C367.254,406.488,198.277,449.992,206.347,442.752z"/>
		<path fill="none" stroke="#DA9701" stroke-width="2" stroke-miterlimit="10" d="M206.347,442.752
			c-8.069,7.24-8.069-109.666,0-105.771c-8.069-3.895,161.382-39.029,153.313-31.791c8.068-7.238,7.594,101.299-0.43,98.201
			C367.254,406.488,198.277,449.992,206.347,442.752z"/>
	</g>
	<g>
		<linearGradient id="SVGID_3_" gradientUnits="userSpaceOnUse" x1="199.3999" y1="441.166" x2="365.2744" y2="441.166">
			<stop  offset="0" style="stop-color:#CE8401"/>
			<stop  offset="0.5067" style="stop-color:#E6A337"/>
			<stop  offset="1" style="stop-color:#FBC060"/>
		</linearGradient>
		<path fill="url(#SVGID_3_)" d="M359.177,457.16c8.131,1.813-63.464,37.719-154.472,4.936c-8.13,2.332-6.374-15.4,1.589-16.045
			c-7.963,0.645,161.014-42.861,152.883-39.361C367.308,403.189,367.308,458.973,359.177,457.16z"/>
		<path fill="none" stroke="#CE8B0B" stroke-width="2" stroke-miterlimit="10" d="M359.177,457.16
			c8.131,1.813-63.464,37.719-154.472,4.936c-8.13,2.332-6.374-15.4,1.589-16.045c-7.963,0.645,161.014-42.861,152.883-39.361
			C367.308,403.189,367.308,458.973,359.177,457.16z"/>
	</g>
	<path fill-rule="evenodd" clip-rule="evenodd" fill="#161616" d="M340.23,277.515c-4.072-1.403-12.012-1.235-12.908,4.277
		c-0.281,1.756-0.145,4.079,1.133,5.473c0.932,1.008,2,0.963,2.969,0.406c0.406-0.135,0.807-0.434,1.168-0.955
		c0.189-0.275-0.236-0.588-0.461-0.357c-0.264,0.281-0.563,0.549-0.898,0.752c-1.365,0.43-2.906-1.766-2.324-3.237
		c0.66-1.711,2.85-2.304,4.498-1.878c1.719,0.443,3.342,1.479,4.273,3.023c1.891,3.129,0.949,7.348-3.098,7.682
		c-3.549,0.303-6.889-1.127-9.885-2.906c-3.514-2.078-6.662-4.666-10.049-6.934c-2.934-1.974-6.057-3.762-9.242-5.278
		c-6.152-2.933-13.391-5.255-20.047-2.634c-2.291,0.91-3.773,2.35-4.721,4.11c-0.951-1.761-2.436-3.2-4.727-4.11
		c-6.663-2.621-13.897-0.299-20.045,2.634c-3.188,1.517-6.313,3.305-9.247,5.278c-3.379,2.268-6.536,4.856-10.042,6.934
		c-2.996,1.779-6.336,3.209-9.883,2.906c-4.053-0.334-4.996-4.553-3.101-7.682c0.932-1.543,2.555-2.58,4.273-3.023
		c1.648-0.426,3.839,0.167,4.504,1.878c0.571,1.471-0.964,3.667-2.335,3.237c-0.324-0.203-0.63-0.471-0.894-0.752
		c-0.225-0.23-0.645,0.082-0.458,0.357c0.36,0.521,0.758,0.82,1.165,0.955c0.966,0.557,2.037,0.602,2.968-0.406
		c1.278-1.395,1.417-3.717,1.131-5.473c-0.892-5.513-8.836-5.681-12.905-4.277c-5.862,2.02-7.729,9.348-6.944,14.897
		c1.012,7.168,6.086,12.654,11.658,16.893c5.055,3.842,11.158,6.766,17.37,8.111c6.453,1.402,13.155,0.656,19.283-1.725
		c3.9-1.508,7.421-3.604,10.277-6.455c3.888-3.354,6.549-8.08,7.951-13.137c1.395,5.057,4.063,9.783,7.947,13.137
		c2.852,2.852,6.377,4.947,10.275,6.455c6.129,2.381,12.836,3.127,19.281,1.725c6.211-1.346,12.32-4.27,17.373-8.111
		c5.576-4.238,10.645-9.725,11.65-16.893C347.955,286.863,346.088,279.535,340.23,277.515z"/>
	
		<linearGradient id="SVGID_4_" gradientUnits="userSpaceOnUse" x1="220.1123" y1="270.3311" x2="201.1864" y2="231.8242" gradientTransform="matrix(0.7071 0.7071 -0.7071 0.7071 276.7935 -111.1953)">
		<stop  offset="0" style="stop-color:#FFFFFF"/>
		<stop  offset="0.2015" style="stop-color:#F5F7F9"/>
		<stop  offset="0.5401" style="stop-color:#DBE3E8"/>
		<stop  offset="0.9719" style="stop-color:#B1C2CC"/>
		<stop  offset="1" style="stop-color:#AEC0CA"/>
	</linearGradient>
	<path fill="url(#SVGID_4_)" stroke="#161616" stroke-width="2" stroke-miterlimit="10" d="M265.594,251.751
		c-12.279,12.284-32.191,12.284-44.471,0c-12.283-12.28-12.283-32.191-0.003-44.472c12.281-12.28,32.195-12.28,44.474,0
		C277.874,219.56,277.874,239.471,265.594,251.751z"/>
	<path fill="none" stroke="#4D4C4C" stroke-width="2" stroke-miterlimit="10" d="M211.909,221.457c0,2.526-2.047,4.576-4.575,4.576
		s-4.578-2.05-4.578-4.576c0-2.531,2.05-4.581,4.578-4.581S211.909,218.926,211.909,221.457z"/>
	<path fill="#161616" d="M193.555,224.376c0,1.896-1.537,3.431-3.43,3.431c-1.896,0-3.432-1.534-3.432-3.431
		c0-1.892,1.535-3.431,3.432-3.431C192.018,220.945,193.555,222.484,193.555,224.376z"/>
	<path fill="#161616" d="M186.693,236.906c0,1.891-1.537,3.435-3.43,3.435c-1.897,0-3.432-1.544-3.432-3.435
		c0-1.897,1.535-3.433,3.432-3.433C185.156,233.473,186.693,235.008,186.693,236.906z"/>
	<path fill="#161616" d="M186.693,252.167c0,1.893-1.537,3.431-3.43,3.431c-1.897,0-3.432-1.538-3.432-3.431
		c0-1.896,1.535-3.436,3.432-3.436C185.156,248.732,186.693,250.271,186.693,252.167z"/>
	<path fill="#161616" d="M186.693,266.942c0,1.892-1.537,3.431-3.43,3.431c-1.897,0-3.432-1.539-3.432-3.431
		c0-1.897,1.535-3.432,3.432-3.432C185.156,263.51,186.693,265.044,186.693,266.942z"/>
	<path fill="#161616" d="M186.693,282.358c0,1.892-1.537,3.437-3.43,3.437c-1.897,0-3.432-1.545-3.432-3.437
		c0-1.892,1.535-3.426,3.432-3.426C185.156,278.932,186.693,280.466,186.693,282.358z"/>
	<path fill="#161616" d="M186.693,296.816c0,1.891-1.537,3.43-3.43,3.43c-1.897,0-3.432-1.539-3.432-3.43
		c0-1.896,1.535-3.432,3.432-3.432C185.156,293.385,186.693,294.92,186.693,296.816z"/>
	<circle fill="#161616" cx="183.262" cy="312.232" r="3.431"/>
	<path fill="#161616" d="M186.693,327.49c0,1.896-1.537,3.436-3.43,3.436c-1.897,0-3.432-1.539-3.432-3.436
		c0-1.893,1.535-3.426,3.432-3.426C185.156,324.064,186.693,325.598,186.693,327.49z"/>
	<circle fill="#161616" cx="183.262" cy="342.27" r="3.431"/>
	<path fill="#161616" d="M186.693,357.686c0,1.893-1.537,3.436-3.43,3.436c-1.897,0-3.432-1.543-3.432-3.436
		c0-1.891,1.535-3.43,3.432-3.43C185.156,354.256,186.693,355.795,186.693,357.686z"/>
	<circle fill="#161616" cx="183.262" cy="372.143" r="3.431"/>
	<circle fill="#161616" cx="183.262" cy="387.561" r="3.431"/>
	<path fill="#161616" d="M186.693,403.594c0,1.891-1.537,3.43-3.43,3.43c-1.897,0-3.432-1.539-3.432-3.43
		c0-1.895,1.535-3.432,3.432-3.432C185.156,400.162,186.693,401.699,186.693,403.594z"/>
	<path fill="#161616" d="M186.693,418.367c0,1.891-1.537,3.436-3.43,3.436c-1.897,0-3.432-1.545-3.432-3.436
		c0-1.893,1.535-3.432,3.432-3.432C185.156,414.936,186.693,416.475,186.693,418.367z"/>
	<circle fill="#161616" cx="183.262" cy="433.787" r="3.431"/>
	<path fill="#161616" d="M198.595,201.762c0,0-28.421-8.699-27.336-20.813c0,0-6.952-28.039,109.179-29.591
		c116.125,1.552,111.565,29.591,111.565,29.591c1.086,12.115-27.336,20.813-27.336,20.813c-104.385-55.146-166.517,0-166.517,0"/>
	<path fill="#161616" d="M363.809,160.7v-25.631c-11.18-47.22-55.604-50.95-55.604-50.95h-27.768h-27.766
		c0,0-44.428,3.729-55.611,50.95V160.7"/>
	<path fill="#4D4C4C" d="M363.809,160.181v-8.282c-95.142-24.304-166.749,0-166.749,0v8.282
		C197.06,160.181,280.705,136.932,363.809,160.181z"/>
	<g opacity="0.6">
		<path fill="#D8E4E5" d="M238.417,247.37c-0.461-3.358,10.194-10.627,12.357-12.04c0,0,6.681-4.399,11.594-6.455
			c-1.853,4.25-3.77,5.776-7.245,8.342C250.253,240.933,244.06,245.867,238.417,247.37"/>
	</g>
	<g opacity="0.6">
		<path fill="#D8E4E5" d="M245.281,248.832c-0.302-1.946,6.629-6.151,8.034-6.971c0,0,4.347-2.548,7.542-3.733
			c-1.206,2.457-2.452,3.34-4.713,4.825C252.977,245.102,248.949,247.958,245.281,248.832"/>
	</g>
	<g>
		<path fill="#FFFFFF" d="M288.744,280.448c0.076-0.565,2.127-1.438,2.775-1.647c1.619-0.466,3.797-0.186,5.566,0.331
			c3.141,0.941,6.4,2.494,9.469,4.323c-1.584-0.915-7.48-1.313-7.48-1.313s1.996,0.39,0,0c-1.391-0.316-6.768-0.462-8.145-0.823
			c0,0-1.973-0.422-2.1-0.629"/>
	</g>
	<g>
		<path fill="#FFFFFF" d="M271.269,280.167c-0.091-0.565-2.14-1.349-2.78-1.53c-1.609-0.394-3.741-0.026-5.461,0.562
			c-3.062,1.073-6.218,2.752-9.174,4.712c1.532-0.981,7.314-1.624,7.314-1.624s-1.949,0.466,0,0
			c1.358-0.376,6.637-0.742,7.981-1.159c0,0,1.927-0.503,2.042-0.715"/>
	</g>
</g>
<path fill="none" d="M104.125,468.797c77.282,81.205,262.102,99.699,368.935-25.531"/>
<text transform="matrix(0.8338 0.5521 -0.5521 0.8338 117.0933 482.5176)"><tspan x="0" y="0" font-family="'ToxTypewriter'" font-size="76">D</tspan><tspan x="42.584" y="-0.207" font-family="'ToxTypewriter'" font-size="76" rotate="-11.142">r</tspan><tspan x="81.904" y="-8.513" font-family="'ToxTypewriter'" font-size="76" rotate="-17.858">.</tspan><tspan x="97.854" y="-13.562" font-family="'ToxTypewriter'" font-size="76" rotate="-21.297"> </tspan><tspan x="113.499" y="-18.957" font-family="'ToxTypewriter'" font-size="76" rotate="-27.031">T</tspan><tspan x="148.505" y="-36.95" font-family="'ToxTypewriter'" font-size="76" rotate="-34.461">e</tspan><tspan x="175.523" y="-55.369" font-family="'ToxTypewriter'" font-size="76" rotate="-41.197">q</tspan><tspan x="200.686" y="-76.924" font-family="'ToxTypewriter'" font-size="76" rotate="-49.055">u</tspan><tspan x="227.444" y="-108.055" font-family="'ToxTypewriter'" font-size="76" rotate="-57.278">e</tspan><tspan x="246.025" y="-136.316" font-family="'ToxTypewriter'" font-size="76" rotate="-65.842">ñ</tspan><tspan x="262.931" y="-174.592" font-family="'ToxTypewriter'" font-size="76" rotate="-74.525">o</tspan></text>
<g>
	<g>
		<g>
			<g>
				<g>
					<path fill="#161616" d="M502.247,252.951c0.016,2.078,0.416,1.332,0.498,1.644
						C502.565,251.114,502.141,253.042,502.247,252.951z"/>
					<polygon fill="#161616" points="498.468,218.952 498.743,219.521 497.445,214.634 					"/>
					<path fill="#161616" d="M491.186,187.875c0.11,1.547,0.898,4.323,1.871,7.4c0.457,1.545,1.058,3.142,1.424,4.75
						c0.401,1.599,0.766,3.159,1.023,4.559l0.053,0.95l1.138,2.378c-0.423-1.679-0.877-3.484-1.34-5.32
						c-0.482-1.83-0.906-3.708-1.495-5.476C492.756,193.56,491.794,190.236,491.186,187.875z"/>
					<path fill="#161616" d="M486.859,171.277c0.13,1.087-1.582-3.362,1.386,3.752c-0.106-0.374-0.138-0.482-0.2-0.699
						C487.794,173.684,487.448,172.793,486.859,171.277z"/>
					<path fill="#161616" d="M488.045,174.331C489.307,177.476,487.45,172.183,488.045,174.331L488.045,174.331z"/>
					<path fill="#161616" d="M481.804,159.995l2.064,3.963c-0.234-0.916-1.84-4.556-1.122-3.259
						C480.732,156.577,480.977,157.513,481.804,159.995z"/>
					<path fill="#161616" d="M479.539,156.398c0,0,0.286,0.501,0.572,1.003c0.264,0.513,0.527,1.026,0.527,1.026
						C480.533,158.031,480.319,157.455,479.539,156.398z"/>
					<path fill="#161616" d="M482.856,162.794l-2.218-4.366c0.161,0.637-0.021,0.795,0.998,2.012
						C481.28,160.165,481.862,160.958,482.856,162.794z"/>
					<path fill="#161616" d="M483.897,165.362c0.451,1.166,0.972,2.498,1.088,3.057c0.118,0.558-0.017,0.275-1.03-1.715
						c1.687,3.898,2.432,5.556,2.451,5.21c0.001-0.169-0.199-0.831-0.602-1.944C485.399,168.857,484.83,167.279,483.897,165.362z"/>
					<path fill="#161616" d="M489.96,186.556c0,0,0.216,0.8,0.432,1.6c0.211,0.801,0.37,1.617,0.369,1.617l1.012,2.687
						c-0.252-0.671-0.642-2.22-0.988-3.569C490.414,187.549,490.024,186.427,489.96,186.556z"/>
					<path fill="#161616" d="M468.865,135.415c-0.278-0.154,0.467,1.478,0.479,1.859c0.001,0,0.497,0.66,0.946,1.349
						c0.448,0.691,0.896,1.382,0.896,1.382C470.479,138.457,468.79,135.728,468.865,135.415z"/>
					<path fill="#161616" d="M469.345,137.273l-2.875-4.003C468.813,136.983,469.353,137.595,469.345,137.273z"/>
					<path fill="#161616" d="M478.467,156.042c0,0,1.077,1.712,1.995,3.507c0.954,1.779,1.909,3.559,1.909,3.559
						s-1.116-2.132-2.232-4.264c-0.535-1.076-1.173-2.101-1.624-2.882c-0.457-0.778-0.762-1.296-0.762-1.296L478.467,156.042z"/>
					<path fill="#161616" d="M458.253,119.842c0,0,0.132,0.12,0.309,0.315c0.179,0.194,0.417,0.453,0.655,0.712
						c0.477,0.519,0.954,1.037,0.954,1.037s-0.83-0.937-1.66-1.875c-0.875-0.899-1.75-1.799-1.75-1.799L458.253,119.842z"/>
					<path fill="#161616" d="M450.408,110.111c1.579,1.379-1.484-2.467,0.087-0.925c-2.281-2.531-4.335-4.598-6.264-6.371
						C446.194,104.779,448.074,107.077,450.408,110.111z"/>
					<path fill="#161616" d="M440.968,99.866c1.006,0.954,2.088,1.907,3.264,2.949C443.165,101.793,442.094,100.809,440.968,99.866z
						"/>
					<path fill="#161616" d="M461.862,126.277c-0.146-0.362-0.373-1.097-1.893-3.409l0.775,1.827
						C461.085,125.178,461.471,125.724,461.862,126.277z"/>
					<path fill="#161616" d="M460.772,124.759l-0.027-0.063c-1.208-1.718-2.045-2.909-2.403-3.419
						C458.648,121.715,459.381,122.764,460.772,124.759z"/>
					<path fill="#161616" d="M462.144,126.677c-0.104-0.147-0.18-0.255-0.281-0.399
						C461.936,126.454,461.989,126.553,462.144,126.677z"/>
					<path fill="#161616" d="M472.775,144.517c-1.646-2.386-4.853-7.445-2.274-2.233
						C471.782,143.925,470.303,140.936,472.775,144.517z"/>
					<path fill="#161616" d="M463.093,128.935c0,0,0.184,0.269,0.46,0.672c0.256,0.416,0.599,0.971,0.94,1.525
						c0.683,1.11,1.365,2.22,1.365,2.22c0.04-0.146-0.33-1.029,0.541,0.11c0,0-0.818-1.138-1.637-2.276
						c-0.409-0.568-0.818-1.137-1.125-1.563C463.312,129.209,463.093,128.935,463.093,128.935z"/>
					<polygon fill="#161616" points="461.504,126.933 463.093,128.935 462.003,127.339 					"/>
					<path fill="#161616" d="M446.722,106.745c-0.809-0.792-1.619-1.651-2.46-2.573c-0.871-0.894-1.788-1.834-2.761-2.833
						c0.986,1.122,2.053,2.205,3.021,3.367c0.981,1.149,1.959,2.294,2.911,3.409C447.804,108.339,448.832,109.157,446.722,106.745z"
						/>
					<path fill="#161616" d="M453.751,115.346c-0.103-0.118-0.233-0.27-0.329-0.38C453.584,115.231,453.728,115.433,453.751,115.346
						z"/>
					<path fill="#161616" d="M421.57,82.504c0.098,0.12,0.183,0.225,0.283,0.348c0.042,0.003,0.075,0,0.124,0.01L421.57,82.504z"/>
					<path fill="#161616" d="M447.7,108.546c1.405,1.749,2.363,2.694,3.301,3.577c-1.131-1.241-2.317-2.568-3.568-4.008
						C447.265,108.014,447.212,108.014,447.7,108.546z"/>
					<path fill="#161616" d="M435.461,94.521c0.397,0.433,0.819,0.894,1.261,1.375c0.428,0.495,0.873,1.012,1.33,1.541
						c-0.353-0.456-0.874-1.164-1.396-1.743C436.131,95.117,435.65,94.624,435.461,94.521z"/>
					<path fill="#161616" d="M453.046,114.297c0.074,0.084,0.143,0.161,0.223,0.252
						C452.886,113.913,452.907,114.013,453.046,114.297z"/>
					<path fill="#161616" d="M453.046,114.297c-0.764-0.871-1.404-1.521-2.045-2.175c0.875,1.049,1.691,2.02,2.421,2.843
						C453.273,114.729,453.138,114.481,453.046,114.297z"/>
					<path fill="#161616" d="M413.39,79.497c0.274-0.036,1.616,0.776,3.354,2.03c0.865,0.632,1.847,1.353,2.809,2.172
						c0.943,0.842,1.898,1.744,2.781,2.65c3.943,3.023,2.365-0.068-0.48-3.496c-0.247,0.054-0.272,0.076-4.484-2.898
						c0.63,0.655,2.839,2.46,4.285,3.977c1.482,1.475,2.368,2.456,0.617,1.177c-2.608-2.172-3.703-3.027-4.4-3.685
						c-0.696-0.658-1.018-1.086-2.253-2.19c0.952,1.062-0.86-0.134-2.813-1.403c-1.924-1.31-4.139-2.488-3.739-1.787
						c0,0,0.312,0.202,0.778,0.504c0.471,0.299,1.093,0.704,1.687,1.147c1.204,0.865,2.409,1.731,2.409,1.731
						C413.958,79.583,412.159,78.398,413.39,79.497z"/>
					<path fill="#161616" d="M429.235,89.341l1.569,1.428c-1.68-1.747-2.885-2.999-5.107-5.31c-2.803-2.172-3.45-2.537-3.72-2.597
						c0,0,1.967,1.722,3.934,3.444c0.983,0.861,1.967,1.722,2.704,2.368c0.724,0.661,1.186,1.124,1.186,1.124L429.235,89.341z"/>
					<path fill="#161616" d="M437.652,97.397c-0.365-0.222-0.857-0.62-1.385-1.027c-0.537-0.396-1.101-0.812-1.545-1.139
						c-0.898-0.639-1.366-0.861-0.405,0.378c0.567,0.528,1.043,0.971,1.446,1.345c0.394,0.383,0.717,0.697,0.988,0.961
						c0.549,0.521,0.905,0.822,1.212,1.064c0.614,0.484,1.026,0.729,2.375,2.009c-7-7.187,2.164,1.922-2.668-3.5
						c1.416,1.378,2.658,2.649,3.83,3.851c-1.212-1.346-2.37-2.655-3.449-3.902c0.056,0.074,0.095,0.125,0.14,0.186l0.034,0.033
						c-0.002,0.002-0.01-0.004-0.012-0.002c0.261,0.352,0.336,0.478,0.021,0.103c-0.025-0.024-0.112-0.108-0.151-0.146
						c-0.09-0.007-0.256-0.105-0.43-0.215c-1.947-2.17-0.237-0.41,0.43,0.215c0.038,0.01,0.106,0.052,0.13,0.043
						c-0.007-0.009-0.015-0.02-0.022-0.031c0,0-0.445-0.446-1.113-1.114c-0.665-0.671-1.622-1.495-2.547-2.351
						c-1.863-1.695-3.727-3.39-3.727-3.39c0.751,0.757,1.611,1.593,2.716,2.645c0.555,0.523,1.168,1.103,1.857,1.754
						C436.077,95.81,436.84,96.537,437.652,97.397z"/>
					<path fill="#161616" d="M466.979,138.182c-0.135-0.28-0.102-0.285-0.087-0.321
						C466.498,137.345,466.336,137.158,466.979,138.182z"/>
					<path fill="#161616" d="M464.982,134.587c0.442,0.579,0.915,0.996,2.152,3.008c0.995,1.792-0.182,0.1-0.243,0.266
						c0.877,1.125,2.895,4.067,0.72,0.164l-0.431-0.564c-2.044-3.463-4.396-8.127-3.968-7.568
						C463.527,131.1,463.858,132.128,464.982,134.587z"/>
					<path fill="#161616" d="M452.04,115.171c0,0-0.333-0.402-0.832-1.005c-0.497-0.604-1.155-1.413-1.873-2.172
						c-1.405-1.542-2.812-3.083-2.812-3.083l2.494,3.449l0.031-0.306c0.771,0.899,1.279,1.548,1.646,1.998
						c0.371,0.445,0.603,0.688,0.761,0.825C451.771,115.149,451.79,114.993,452.04,115.171z"/>
					<path fill="#161616" d="M420.981,81.711l1.133,0.379c0,0-1.005-0.692-2.075-1.299c-1.054-0.624-2.108-1.249-2.108-1.249
						L420.981,81.711z"/>
					<path fill="#161616" d="M412.373,75.007l0.556-0.067c0,0-0.151-0.099-0.378-0.248c-0.233-0.139-0.546-0.324-0.857-0.509
						c-0.622-0.37-1.245-0.74-1.245-0.74L412.373,75.007z"/>
					<path fill="#161616" d="M89.651,366.275l1.303,2.029C90.347,367.34,89.956,366.719,89.651,366.275z"/>
					<path fill="#161616" d="M81.359,350.908l-0.371-0.295C81.455,351.287,81.677,351.547,81.359,350.908z"/>
					<path fill="#161616" d="M160.38,64.047c-3.217,1.623-6.927,3.321-6.313,3.457l1.168-0.234
						C157.307,65.849,158.955,64.851,160.38,64.047z"/>
					<path fill="#161616" d="M61.094,211.02c0.102-0.325,0.208-0.663,0.312-0.997c0.047-0.871,0.092-1.69,0.131-2.423
						C61.404,208.628,61.186,209.783,61.094,211.02z"/>
					<path fill="#161616" d="M62.418,213.817l-1.092,4.525C61.606,217.329,61.961,215.873,62.418,213.817z"/>
					<path fill="#161616" d="M154.588,435.008c0,0,0.634,0.316,1.268,0.631c0.637,0.311,1.296,0.586,1.296,0.584
						C153.517,433.773,155.007,435.01,154.588,435.008z"/>
					<path fill="#161616" d="M310.157,32.933c-3.051-0.559-5.491-0.941-7.642-1.235C306.199,32.417,309.128,33.167,310.157,32.933z"
						/>
					<path fill="#161616" d="M82.194,362.541c0.82,1.27,1.218,1.783,1.28,1.697C82.637,362.93,82.126,362.209,82.194,362.541z"/>
					<path fill="#161616" d="M293.59,30.953c0.543,0.076,1.075,0.149,1.628,0.226c1.133,0.057,2.269,0.114,3.467,0.174
						c1.197,0.079,2.462,0.128,3.831,0.345c-1.355-0.298-2.83-0.44-4.339-0.58C296.666,30.989,295.115,30.918,293.59,30.953z"/>
					<path fill="#161616" d="M459.93,377.141c0.15-0.201,0.33-0.443,0.468-0.629C460.389,376.414,460.201,376.709,459.93,377.141z"
						/>
					<path fill="#161616" d="M499.722,284.379c-0.102,1.008-0.31,2.646-0.5,4.191C499.347,287.822,499.505,286.56,499.722,284.379z"
						/>
					<path fill="#161616" d="M374.954,52.151C377.052,53.131,375.314,52.247,374.954,52.151L374.954,52.151z"/>
					<path fill="#161616" d="M384.173,58.766c-0.458-0.18-0.816-0.294-0.915-0.232C383.475,58.528,383.791,58.615,384.173,58.766z"
						/>
					<path fill="#161616" d="M270.645,33.268c-0.067,0.001-0.121,0.002-0.198,0.003C271.13,33.339,271.012,33.326,270.645,33.268z"
						/>
					<path fill="#161616" d="M377.98,53.888c-0.75-0.442-1.619-0.944-2.58-1.46C375.818,52.665,376.603,53.108,377.98,53.888z"/>
					<path fill="#161616" d="M377.655,53.491c0.702,0.378,1.256,0.676,1.782,0.96C379.73,54.52,379.521,54.361,377.655,53.491z"/>
					<path fill="#161616" d="M372.004,50.842c1.21,0.54,2.327,1.067,3.396,1.585c-0.401-0.214-0.564-0.314-0.446-0.277
						C374.333,51.875,373.457,51.487,372.004,50.842z"/>
					<path fill="#161616" d="M307.182,472.916c0.15-0.006,0.324-0.014,0.488-0.021C309.922,472.428,308.927,472.584,307.182,472.916
						z"/>
					<path fill="#161616" d="M117.35,105.272c0.067-0.083,0.103-0.127,0.164-0.202c-0.077,0.074-0.173,0.166-0.243,0.233
						L117.35,105.272z"/>
					<path fill="#161616" d="M112.182,111.563c1.877-2.956,3.156-4.472,5.089-6.26c0,0-0.695,0.276-1.391,0.552
						c-0.349,0.14-0.697,0.279-0.958,0.383c-0.253,0.113-0.421,0.188-0.421,0.188L112.182,111.563z"/>
					<path fill="#161616" d="M114.376,399.914l-3.438-4.564c2.496,2.391,4.507,4.555,5.514,5.574
						c1.038,0.99,0.999,0.895-0.536-1.305c-0.384,0.074-1.486-0.926-2.95-2.467c-1.454-1.549-3.332-3.582-5.007-5.781
						c-1.721-2.162-3.441-4.322-4.832-5.934c-1.313-1.668-2.313-2.773-2.704-2.736l-1.947-3.23c0.614,0.885,0.779,0.98,1.385,1.855
						c-3.72-6.305-3.925-3.891-8.896-11.941c-1.64-2.857-2.549-4.982-1.313-3.109l-3.944-6.186c-0.53-0.926-0.641-1.324-0.532-1.236
						c0.101,0.092,0.474,0.641,0.994,1.566c0,0-0.365-0.598-0.875-1.512c-0.486-0.928-1.135-2.166-1.784-3.402
						c-1.298-2.475-2.596-4.949-2.596-4.949l0.074,0.057c-0.938-1.314-2.662-4.506-3.539-6.053c-0.995-2.674,0.72,1.244,0.574,0.508
						c0,0-0.714-1.379-1.428-2.758c-0.357-0.689-0.715-1.381-0.983-1.898c-0.259-0.521-0.412-0.879-0.412-0.879
						c-0.299-1.244,0.094-0.697,0.769,0.646c0.732,1.322,1.768,3.434,2.625,5.393c-0.569-2.914-1.184-4.033-2.183-5.908
						c-0.902-1.912-2.252-4.568-4.093-10.525c0,0,0.129,0.342,0.323,0.853c0.216,0.503,0.503,1.173,0.791,1.843
						c0.575,1.34,1.149,2.681,1.149,2.681c-0.165-0.944-0.409-1.908-0.712-2.922c-0.304-1.013-0.683-2.071-1.008-3.241
						c-0.694-2.324-1.537-4.973-2.36-8.152c0.255,1.531,3.076,12.868,0.61,6.633c-0.497-1.832-1.291-4.191-2.655-7.562
						c0.452-0.175-0.625-3.537-1.86-7.786l0.7,0.125c-0.365-1.137-0.674-1.955-0.895-2.6c-0.211-0.647-0.386-1.106-0.55-1.506
						c-0.328-0.798-0.614-1.354-1.071-2.693c-1.141-5.212-0.917-6.385-0.698-7.701c-1.396-8.4,0.255,5.947-1.637-3.967
						c-0.252-1.758-0.512-3.38-0.789-4.953c-0.219-1.583-0.42-3.123-0.667-4.703c-0.473-3.161-1.146-6.478-1.581-10.713
						c-0.158-4.979,0.456,0.837,0.503-0.957l-0.843-4.36c-0.07-1.078,0.113-0.738,0.205-0.567c-0.393-3.7-0.674-0.268-1.018-6.118
						c-0.186-0.39-0.234-1.34-0.216-2.657c0.02-0.657,0.042-1.407,0.066-2.225c0.017-0.409,0.035-0.834,0.053-1.273
						c0.041-0.439,0.083-0.893,0.125-1.356c0.17-1.856,0.341-3.886,0.431-5.904c0.104-2.019,0.051-4.03,0.035-5.846
						c0.317-1.768,0.326,0.883,0.615,0.352c0.114-4.967,0.163-7.096,0.207-9.004c0.049-1.912,0.175-3.589,0.324-7.693
						c0,0,0.323-1.712,0.646-3.425c0.141-0.858,0.389-1.7,0.529-2.338c0.154-0.635,0.256-1.059,0.256-1.059
						c-1.374,4.957-0.787-1.556-0.232-7.322c-0.548,1.75-1.022,3.251-1.302,4.267c0,0,0.321-2.284,0.642-4.567
						c0.133-1.148,0.406-2.269,0.552-3.121c0.163-0.85,0.271-1.416,0.271-1.416c0.353-1.063,0.358-0.108,0.28,1.417
						c0.085-0.624,0.167-1.215,0.229-1.676c0.971-3.157,0.945-1.404,0.767,0.96c-0.381,1.061-0.759,2.114-1.127,3.139
						c-0.018,2.313,0.034,4.47,0.485,4.075c0.032-0.598,0.17-1.736,0.356-2.981c0,0.602,0.026,0.991,0.137,0.734
						c0.138-0.288,0.105-1.266,0.307-2.75l1.164-1.872l-0.164-0.551c0,0,0.779-2.88,1.558-5.76c0.355-1.447,0.88-2.85,1.208-3.917
						c0.345-1.063,0.576-1.772,0.576-1.772c0.396-2.106,0.778-4.146,1.169-6.228c0.492-2.063,0.994-4.169,1.532-6.426
						c0.287-1.129,0.583-2.295,0.892-3.513c0.335-1.211,0.766-2.445,1.19-3.756c0.446-1.305,0.913-2.673,1.406-4.119
						c0.506-1.442,1.029-2.969,1.729-4.525c-0.914,3.291,0.486,0.997,0.979,1.411c-1.067,1.556-1.906,4.06-2.916,6.932
						c-0.482,1.445-1.043,2.97-1.546,4.578c-0.484,1.614-1.01,3.275-1.604,4.927c1.24-3.45,1.259-2.587,1.059-1.673
						c0,0,0.215-0.752,0.538-1.881c0.162-0.565,0.352-1.224,0.555-1.929c0.236-0.694,0.488-1.435,0.741-2.175
						c1.01-2.968,2.02-5.936,2.02-5.936c0.183,0.228,0.514-0.354,0.974-1.363c0.467-1.005,1.157-2.397,1.916-3.847
						c-0.967,0.923-0.158-1.27,1.123-4.298c0.326-0.754,0.676-1.563,1.033-2.388c0.398-0.806,0.805-1.627,1.201-2.429
						c0.791-1.604,1.532-3.131,2.046-4.304c0.441-0.125,0.189,1.123-2.717,6.617c3.835-5.729,2.872-8.507,6.875-14.021
						c-0.751,1.323-1.206,2.009-1.355,2.613c0.754-1.612,2.268-4.275,3.495-6.292c1.244-2.007,2.31-3.298,1.865-2.372l-0.812,1.279
						c1.386-2.107,3.115-4.774,4.929-7.619c1.868-2.809,3.972-5.693,5.818-8.433c0.903-1.386,1.91-2.611,2.759-3.799
						c0.866-1.176,1.648-2.259,2.31-3.206c1.317-1.899,2.171-3.236,2.275-3.642c0.145-0.008-0.082,1.654-0.307,2.253
						c0,0,0.139-0.25,0.382-0.686c0.247-0.434,0.631-1.027,1.078-1.753c0.905-1.454,2.11-3.393,3.316-5.331
						c1.18-1.976,2.502-3.838,3.482-5.254c0.982-1.419,1.636-2.364,1.636-2.364c-0.566,1.652,4.881-1.54-0.585,4.792
						c0.865-0.832,1.831-1.763,2.993-2.965c1.168-1.196,2.486-2.709,4.256-4.514c-1.266,1.04-3.684,2.09-2.125,0.475
						c2.518-1.838,3.363-2.493,4.33-3.286c0.482-0.397,0.998-0.822,1.76-1.45c0.765-0.623,1.76-1.466,3.324-2.553
						c-1.959,1.489-0.666-1.146,2.309-3.674c-0.348,0.527,0.981,0.646-0.012,1.664c0,0,1.643-1.795,3.286-3.59
						c0.814-0.911,1.71-1.727,2.348-2.382c0.648-0.644,1.081-1.073,1.081-1.073c-1.776,1.653,0.263,1.006,2.152-0.075
						c-0.461,0.223,1.18-1.061,3.181-2.61c2.037-1.5,4.507-3.163,5.514-3.964l-3.484,2.158c2.246-1.544,3.858-2.786,5.156-3.881
						c1.28-1.115,2.304-2.006,3.328-2.898c1.019-0.896,2.038-1.796,3.376-2.836c1.348-1.026,2.969-2.272,5.361-3.575
						c-1.028,0.859-2.071,2.839,2.765,0.222c0.475-0.44,1.24-1.151,2.228-2.069c1.001-0.907,2.223-2.052,3.727-3.162
						c1.486-1.141,3.18-2.384,5.033-3.644c0.933-0.617,1.878-1.293,2.905-1.863c1.023-0.576,2.08-1.145,3.162-1.695l1.83-0.466
						c0,0,1.657-0.852,3.313-1.703c0.822-0.444,1.676-0.813,2.311-1.103c0.636-0.289,1.06-0.481,1.06-0.481
						c-2.028,1.174-5.743,3.685-9.739,6.187c-2.019,1.211-3.985,2.681-5.881,3.945c-1.889,1.269-3.655,2.455-5.115,3.436
						c3.731-1.659,1.188-0.183,6.593-2.994c2.051-0.704-2.74,1.93-4.322,2.76c0,0,3.171-1.568,6.342-3.136
						c1.568-0.818,3.209-1.483,4.421-2.02c1.216-0.529,2.026-0.882,2.026-0.882c-0.426-0.177,1.971-1.445,4.392-2.71
						c2.463-1.163,4.965-2.281,4.608-2.447c0,0-0.882,0.395-2.204,0.986c-0.66,0.295-1.431,0.64-2.256,1.009
						c-0.808,0.409-1.669,0.845-2.531,1.281c-3.437,1.745-6.875,3.49-6.875,3.49c-0.43-0.174,1.392-1.52,4.498-3.339
						c1.563-0.885,3.402-1.992,5.514-2.937c2.11-0.95,4.416-1.918,6.781-2.819c2.485-0.692-1.366,1.825-1.084,1.955
						c0.283-0.174,0.97-0.505,1.856-0.908c0.884-0.409,1.969-0.885,3.076-1.268c2.198-0.808,4.37-1.555,4.833-1.625l-3.927,1.708
						c2.692-0.777,4.782-1.719,7.03-2.665c2.253-0.921,4.719-1.679,8.039-2.311c1.129-0.276,2.837-0.608,4.335-0.767
						c1.494-0.179,2.736-0.357,2.886-0.596c-3.858,0.103-5.208-2.02-2.845-3.157c0.408-0.067,3.466-0.572,6.757-1.115
						c0.822-0.127,1.655-0.274,2.471-0.381c0.82-0.083,1.616-0.164,2.352-0.239c1.47-0.143,2.693-0.246,3.369-0.27
						c3.893-0.084-5.436,2.427-2.111,2.358c0.103-0.205,2.149-0.8,3.007-1.027c2.436-0.276-0.899,0.739,4.314-0.277
						c0.774-0.805,10.733-1.311,2.407-0.896c2.569-0.424,3.948-0.564,5.439-0.698c1.493-0.124,3.091-0.314,6.141-0.518
						c-0.989-0.146,0.343-0.623,2.587-1.138c2.245-0.483,5.396-1.156,8.022-1.248c-0.302,0.181,0.885,0.376,1.458,0.465
						c2.681-0.037,5.051-0.069,7.255-0.1c2.203,0.056,4.239,0.179,6.251,0.265c2.01,0.108,4.001,0.155,6.106,0.3
						c2.104,0.176,4.327,0.362,6.815,0.571c0.908,0.215,5.679,0.83,3.609,0.935c1.434,0.047,2.765-0.006,5.819,0.362
						c5.822,1.334-6.807-0.772-2.395,0.502c0.42-0.3,7.96,0.324,12.294,0.994c-0.305-0.21-1.08-0.434-2.14-0.659
						c-1.06-0.223-2.398-0.478-3.854-0.594c-2.902-0.29-6.19-0.521-8.378-0.674c0.035-0.421,1.971-0.61,5.22-0.576
						c1.621,0.037,3.583,0.047,5.772,0.263c2.187,0.237,4.622,0.542,7.229,0.908c2.068,0.31,3.318,0.543,4.04,0.774
						c0.727,0.208,0.943,0.331,0.948,0.408c0.01,0.154-0.821,0.125-0.104,0.229c3.81,0.917,6.546,1.473,8.712,1.848
						c2.139,0.476,3.71,0.749,5.202,1.01c1.491,0.262,2.902,0.516,4.716,0.965c1.813,0.445,3.976,1.263,7.026,2.433
						c4.727,2.167-0.133,1.084,0.828,1.819c-3.247-0.979-5.67-1.928-7.86-2.729c-2.208-0.739-4.152-1.428-6.369-2.046l5.375,1.791
						c-2.128-0.419-6.509-1.521-8.84-2.345c1.008,0.411,3.094,1.073,5.836,1.891c1.372,0.405,2.906,0.858,4.55,1.343
						c1.622,0.555,3.352,1.147,5.139,1.758c1.784,0.621,3.643,1.213,5.473,1.898c1.814,0.728,3.635,1.458,5.411,2.17
						c1.764,0.74,3.521,1.373,5.104,2.15c1.593,0.756,3.088,1.479,4.434,2.149c2.021,0.716,5.468,2.069,3.969,1.154l-3.507-1.503
						c-3.021-1.842,6.805,2.418,2.481,0.242c0.603,0.229,1.213,0.461,1.835,0.697c0.609,0.263,1.229,0.53,1.861,0.803
						c1.259,0.563,2.565,1.146,3.93,1.756c1.359,0.626,2.773,1.293,4.237,2.034c1.429,0.804,2.912,1.675,4.451,2.631l0.871,1.208
						c-0.044-0.228-3.912-2.68-5.772-3.515c1.38,0.618,3.679,2.191,6.039,3.708c1.178,0.765,2.382,1.499,3.475,2.139
						c1.073,0.671,2.061,1.208,2.862,1.483c0,0-1.011-0.774-2.022-1.549c-0.501-0.396-1.016-0.77-1.413-1.033
						c-0.392-0.271-0.653-0.453-0.653-0.453c1.173,0.556,2.373,1.214,3.625,1.903c1.254,0.691,2.558,1.41,3.895,2.147
						c1.323,0.764,2.714,1.501,4.027,2.393c1.315,0.888,2.63,1.816,3.914,2.789c-2.048-2.188-1.233-0.817-4.595-4.025
						c2.866,2.86-13.891-8.912-8.991-4.709c-1.808-1.542-3.538-2.618-5.42-3.789c-1.888-1.165-3.912-2.45-6.515-4.119
						c0.076,0.266,1.761,1.336-3.017-1.223c-0.244-0.059-0.792-0.255-1.138-0.382c-0.145-0.082-0.195-0.11-0.319-0.181
						c0.093,0.057,0.163,0.1,0.255,0.158c-0.222-0.08-0.242-0.083,0.097,0.058c1.107,0.667,1.988,1.238,2.313,1.531
						c-1.31-0.386-3.837-1.631-6.445-2.765c-2.627-1.096-5.265-2.226-6.634-2.713c-2.878-1.406,1.313,0.339-0.193-0.579
						c0,0-1.023-0.364-2.047-0.728c-1.042-0.318-2.083-0.635-2.083-0.635c-0.221-0.57-7.654-3.82-0.516-1.288l-6.334-2.519
						c-1.819-0.863-4.076-1.638-6.245-2.432c-2.183-0.754-4.29-1.505-5.956-1.883c-3.07-0.974-7.949-1.741-5.16-1.314
						c0,0-0.647-0.166-1.618-0.415c-0.974-0.239-2.26-0.6-3.563-0.89c-2.619-0.533-5.237-1.066-5.237-1.066l-0.07-0.132
						c-5.106-1.33-10.514-1.953-16.039-2.877c-5.579-0.601-11.298-1.484-17.286-2.22c-1.772-0.083-3.574-0.167-5.674-0.265
						c-2.103-0.021-4.5-0.079-7.465-0.217l-1.151-0.418c-2.28-0.057-5.703-0.011-8.805-0.005c-3.101,0.021-5.881,0.029-6.844,0.356
						c-1.242-0.168-3.249-0.161-5.685-0.049c-1.218,0.056-2.543,0.138-3.933,0.238c-1.387,0.131-2.832,0.348-4.304,0.539
						c-1.47,0.205-2.964,0.412-4.44,0.618c-1.475,0.214-2.938,0.387-4.321,0.683c-2.776,0.53-5.317,1-7.304,1.309l-0.201,0.551
						c-0.679,0.121-1.355,0.241-2.031,0.361c-0.668,0.158-1.336,0.316-2.008,0.475c-1.339,0.331-2.692,0.664-4.086,1.008
						c-1.389,0.356-2.819,0.723-4.316,1.106c-1.486,0.425-3.02,0.938-4.654,1.446l0.524,0.317
						c-2.774,1.008-6.468,1.844-10.472,3.162c-2.015,0.62-4.133,1.272-6.304,1.941c-2.144,0.746-4.312,1.594-6.479,2.452
						c0.525-0.392,2.745-1.218,4.339-1.735c-2.681,0.785-5.38,1.762-8.063,2.832c-2.649,1.149-5.246,2.476-7.823,3.749
						c-2.601,1.228-5.039,2.706-7.476,3.982c-2.428,1.297-4.832,2.447-7.086,3.592c-2.103,1.397-3.708,2.256-5.296,3.04
						c0.202-0.118,0.38-0.229,0.529-0.331c-0.224,0.127-0.557,0.316-0.899,0.511c-1.014,0.471-2.029,1.006-3.107,1.623
						c0.943-0.482,1.844-0.944,2.626-1.345c-1.676,0.979-4.094,2.671-6.472,4.306l-1.3,0.261c-0.194,0.131-0.352,0.236-0.555,0.373
						c-2.488,1.385-1.79,1.419-0.318,0.905c-1.195,0.825-2.196,1.716-2.978,2.398c-1.157,0.346-2.663,1.497-4.254,2.701
						c-0.796,0.602-1.614,1.218-2.423,1.755c-0.792,0.56-1.561,1.064-2.306,1.382c-0.642,0.762-3.446,3.061-6.169,5.37
						c-2.621,2.433-5.152,4.882-5.449,5.7c-0.147-0.019-0.823,0.496,0.346-0.525c-2.528,1.978-4.883,4.156-6.799,6.312l-1.41,0.498
						c0,0-1.124,1.356-2.248,2.712c-1.062,1.408-2.124,2.817-2.124,2.817c-3.197,2.813-4.583,3.952-2.002,0.562
						c-1.643,1.963-2.797,3.341-3.691,4.409c-0.868,1.09-1.483,1.864-2.07,2.6c-1.167,1.474-2.264,2.765-4.768,6.312l-0.045-0.583
						c-1.907,2.451-4.546,6.667-5.96,7.938c-1.19,1.271-2.992,3.687-5.262,6.765c-0.559,0.775-1.172,1.575-1.759,2.445
						c-0.573,0.88-1.168,1.796-1.784,2.743c-1.224,1.898-2.526,3.917-3.874,6.007c-5.099,8.546-10.373,18.552-14.183,26.634
						c1.26-1.337,0.243,0.478-0.914,2.803c-1.102,2.348-2.429,5.179-2.137,5.67c-0.637,0.865-1.697,3.129-0.859,0.351
						c-0.398,1.069-0.771,2.071-1.124,3.018c-0.33,0.955-0.641,1.854-0.936,2.71c-0.608,1.706-1.154,3.237-1.669,4.685
						c-0.495,1.455-1.034,2.805-1.365,4.229c-0.356,1.416-0.663,2.856-0.909,4.42c-0.552,0.929,0.145-1.989-0.267-1.141
						c-0.143,0.723-0.562,2.855-0.979,3.726c-0.412,0.852,0.142-1.347,0.422-2.772c-0.626,2.25-1.063,4.008-1.35,5.391
						c-0.222,1.4-0.319,2.42-0.332,3.181c-0.025,1.522,0.286,2.008,0.598,2.427c-0.711,2.247-1.19,3.948-1.514,5.513
						c-0.25,1.581-0.362,3.022-0.403,4.738c-0.543,1.56-1.293,4.209-0.371-1.49c-0.154,0.797-0.468,2.413-0.852,4.394
						c-0.189,0.991-0.395,2.074-0.608,3.191c-0.151,1.126-0.308,2.288-0.46,3.427c-0.586,4.56-1.073,8.764-0.696,8.965
						c-0.239,0.998-0.391,4.517-0.382,5.373c-0.15,1.813-0.266,3.213-0.365,4.404c-0.082,1.192-0.085,2.178-0.125,3.159
						c-0.062,1.962-0.11,3.909-0.17,7.48l0.154-1.979c0.631,2.825,0.163,5.928,0.397,11.682l-0.083-0.162
						c-0.105,3.305,0.06,5.308,0.143,6.662c0.092,1.354,0.176,2.057,0.258,2.754c0.082,0.697,0.16,1.388,0.24,2.721
						c0.035,0.667,0.078,1.493,0.134,2.56c0.088,1.064,0.196,2.368,0.33,3.992l0.387-0.759c0.589,0.542,0.8,3.408,1.034,7.085
						c0.364,3.653,0.87,8.113,1.737,11.793c0,0-0.065-0.682-0.116-1.367c-0.053-0.684-0.105-1.367-0.105-1.367
						c0.48,2.006,0.817,4.871,1.066,7.78c0.268,2.902,0.39,5.868,0.955,7.876c0.174,0.895-0.559-1.337-0.914-2.557
						c2.34,10.684,0.979,1.207,3.324,8.978c0.042,0.769-0.295,0.367-0.465,0.433c-0.084,0.032-0.127,0.182-0.059,0.654
						c0.065,0.474,0.235,1.271,0.677,2.57c0.314,1.332,1.827,5.025,3.537,9.254c0.943,2.084,1.929,4.305,2.812,6.451
						c0.442,1.076,0.857,2.131,1.23,3.145c0.407,0.998,0.792,1.945,1.099,2.828c-0.438-1.604-0.868-3.188,0.862,0.164
						c2.342,5.248,5.798,14.561,9.12,18.699c0.304,0.672,0.382,0.945,0.341,1.004c0.585,0.938,1.354,2.166,2.198,3.52
						c0.836,1.355,1.729,2.846,2.715,4.215c1.916,2.77,3.734,5.336,4.635,6.326c0.167,1.111,1.381,2.977,2.944,5.254
						c1.583,2.264,3.537,4.922,5.63,7.307c2.062,2.406,3.959,4.771,5.421,6.463c1.456,1.695,2.297,2.869,1.993,3.1
						c0,0,0.56,0.639,1.399,1.596c0.854,0.945,1.926,2.264,3.11,3.48c2.357,2.441,4.714,4.885,4.714,4.885l-0.357-0.148
						c0.745,0.791,1.43,1.516,2.062,2.188c0.644,0.658,1.277,1.219,1.844,1.752c1.145,1.055,2.114,1.914,2.965,2.639
						c1.712,1.439,2.91,2.395,4.18,3.26c1.443,1.387,0.244,0.537,0.064,0.486c4.695,4.254,7.244,6.646,9.876,8.527
						c1.292,0.969,2.554,1.873,4.043,2.904c0.752,0.506,1.527,1.088,2.452,1.645c0.92,0.561,1.931,1.178,3.066,1.869l0.611,1.043
						c2.382,1.566,14.718,11.045,26.097,16.225c-0.134-0.006-0.407-0.037-1.32-0.426c6.324,3.01,13.743,6.912,20.446,9.779
						c1.682,0.701,3.299,1.375,4.816,2.008c0.764,0.303,1.503,0.596,2.212,0.877c0.727,0.232,1.423,0.455,2.084,0.668
						c2.656,0.814,4.795,1.311,6.147,1.291c0,0,0.555,0.158,1.386,0.396c0.825,0.258,1.954,0.508,3.079,0.77
						c2.247,0.523,4.493,1.045,4.493,1.045c-11.412-3.387,1.92-0.27-2.703-1.893c2.257,0.586,5.118,1.539,6.729,2.164
						c0.809,0.301,1.313,0.482,1.254,0.551c-0.053,0.047-0.679,0.018-2.062-0.371l-0.841-0.334c-0.568,0.084,0.03,0.398,1.244,0.83
						c1.215,0.424,3.075,0.846,4.98,1.322c1.908,0.463,3.873,0.932,5.333,1.316c1.457,0.406,2.437,0.594,2.323,0.758
						c2.89,0.52,5.771,1.035,8.642,1.551c2.878,0.469,5.77,0.787,8.638,1.193c1.438,0.174,2.865,0.432,4.304,0.537
						c1.438,0.123,2.874,0.246,4.307,0.369s2.863,0.248,4.291,0.371c0.714,0.057,1.427,0.139,2.141,0.172l2.142,0.078
						c2.854,0.105,5.696,0.209,8.526,0.313c2.831,0.016,5.651-0.064,8.46-0.098c1.403-0.035,2.807-0.014,4.201-0.1
						c1.396-0.096,2.786-0.191,4.175-0.285c1.388-0.1,2.773-0.197,4.154-0.295c1.383-0.092,2.761-0.189,4.125-0.387
						c0,0-0.648-0.102-1.297-0.205c-0.324-0.045-0.648-0.107-0.893-0.16c-0.243-0.051-0.405-0.084-0.405-0.084
						s0.479-0.016,1.192-0.104c0.714-0.088,1.665-0.203,2.617-0.318c1.902-0.23,3.806-0.463,3.806-0.463
						c2.019-0.084,2.764,0.227-2.682,0.889c1.455,0.023,3.729-0.354,5.648-0.758c1.926-0.365,3.464-0.963,3.531-1.029
						c10.609-1.594-3.985,1.578-0.748,1.018l4.4-0.842l-1.01,0.094c1.761-0.465,2.704-0.791,4.018-1.139
						c0.656-0.178,1.408-0.348,2.396-0.57c0.98-0.256,2.199-0.551,3.805-0.91c4.09-0.795,2.185-0.043,3.791-0.385
						c0.002,0.053,0.55-0.047,2.46-0.545c0,0,0.597-0.113,1.469-0.371c0.875-0.242,2.043-0.564,3.211-0.889
						c2.335-0.646,4.671-1.293,4.671-1.293l-3.886,0.502c2.022-0.721,4.208-1.334,5.331-1.693c0.562-0.176,0.845-0.33,0.724-0.352
						c-0.122-0.021-0.662,0.045-1.782,0.184c3.262-0.482,11.889-3.162,19.928-6.498c2.042-0.754,3.98-1.701,5.843-2.535
						c1.858-0.844,3.611-1.641,5.175-2.352c3.097-1.484,5.389-2.711,6.328-3.082c1.288-0.777,2.582-1.527,3.9-2.27
						c1.295-0.783,2.604-1.578,3.95-2.393c2.698-1.615,5.614-3.188,8.677-5.205c-1.599,0.883-2.853,0.916,2.493-2.416
						c-0.303,0.592,0.173,0.529,1.135,0.068c0.961-0.463,2.428-1.291,3.995-2.387c1.587-1.068,3.357-2.279,5.027-3.363
						c0.833-0.543,1.648-1.047,2.393-1.498c0.726-0.477,1.394-0.881,1.971-1.182c-1.994,1.16,1.525-1.654,4.762-4.291
						c1.646-1.287,3.092-2.684,3.824-3.42c0.723-0.748,0.679-0.896-0.82,0.102c4.056-3.369,0.566,0.174,3.804-2.213
						c1.133-1.094,2.365-2.135,3.534-3.299c1.186-1.146,2.396-2.316,3.63-3.508c1.236-1.191,2.535-2.361,3.801-3.605
						c1.245-1.266,2.509-2.551,3.789-3.854c1.271-1.309,2.61-2.592,3.872-3.969c1.246-1.395,2.505-2.803,3.772-4.223
						c0.631-0.713,1.265-1.43,1.899-2.146l0.951-1.084l0.899-1.131c1.187-1.521,2.379-3.051,3.576-4.586
						c0.01-0.297-1.809,1.582,0.041-1.195c0,0,0.36-0.371,0.901-0.926c0.27-0.277,0.584-0.602,0.922-0.949
						c0.32-0.361,0.661-0.746,1.003-1.133c1.369-1.545,2.738-3.092,2.738-3.092c0.856-1.277,1.059-2,1.515-2.93
						c0.227-0.465,0.524-0.979,0.984-1.648c0.438-0.686,1.043-1.527,1.928-2.625c-0.551,0.586-1.374,1.457-0.312-0.305
						c8.679-12.504,15.725-26.508,21.291-41.078c5.583-14.586,9.699-29.723,12.958-44.893c-1.075,4.078-0.611,1.315-0.068-1.838
						c-0.439,2.037-0.419-0.113-0.726,0.254c0,0,0.057-0.195,0.113-0.544c0.063-0.348,0.151-0.845,0.259-1.441
						c0.215-1.194,0.5-2.788,0.786-4.381c0.286-1.596,0.572-3.192,0.787-4.39c0.118-0.598,0.172-1.101,0.218-1.453
						c0.045-0.352,0.07-0.553,0.07-0.553c-0.239-1.209,0.013-4.666,0.258-8c0.155-1.665,0.184-3.305,0.17-4.612
						c-0.009-1.308-0.063-2.282-0.213-2.624l0.01,4.096c-0.315-2.737-0.741-0.843-1.297,1.601c-0.628,2.443-1.324,5.437-1.772,5.006
						c0.098,1.518-0.008,3.265-0.212,5.181c-0.259,1.911-0.701,3.982-1.104,6.174c-0.198,1.096-0.402,2.221-0.61,3.369
						c-0.093,0.574-0.187,1.154-0.282,1.739c-0.111,0.582-0.225,1.169-0.338,1.759c-0.437,2.365-0.774,4.805-0.91,7.295
						c-0.575,2.107,0.023-1.89-0.399-0.783c0.031,2.551-0.642,5.508-2.064,10.926l0.043-0.641c-0.216,0.959-0.425,1.883-0.627,2.778
						c-0.225,0.89-0.483,1.739-0.715,2.569c-0.479,1.656-0.931,3.215-1.364,4.713c-0.461,1.49-0.819,2.945-1.339,4.326
						c-0.498,1.387-0.988,2.751-1.484,4.129c-0.499,1.376-1.004,2.766-1.527,4.207c-0.51,1.445-1.188,2.885-1.819,4.439
						c-1.306,3.094-2.674,6.561-4.625,10.516l0.972-0.998c-1.622,3.432-2.085,4.098-2.923,5.664
						c-1.145,4.275,4.425-9.691,3.514-5.754c-0.74,1.053-1.8,3.102-3.01,5.625c-0.574,1.275-1.332,2.602-2.049,4.008
						c-0.726,1.402-1.477,2.854-2.222,4.295c-0.372,0.719-0.743,1.438-1.108,2.145c-0.383,0.697-0.791,1.367-1.175,2.027
						c-0.774,1.316-1.516,2.559-2.196,3.662c-1.362,2.207-2.465,3.871-3.187,4.422c-3.15,4.902,1.389-1.15-1.765,3.756l-1.083,1.141
						l-0.477,1.449c-0.534,0.795-0.999,1.492-1.451,2.057c-0.458,0.563-0.857,1.02-1.195,1.381
						c-0.676,0.723-1.103,1.055-1.246,1.041c0.561-0.738,1.467-2.186,2.024-3.006c-1.578,1.918-3.571,4.771-5.309,7.318
						c-0.843,1.291-1.74,2.416-2.431,3.348c-0.699,0.926-1.237,1.625-1.522,1.941c0,0,0.9-1.072,1.8-2.143
						c0.451-0.537,0.901-1.072,1.239-1.475c0.344-0.396,0.546-0.682,0.546-0.682c-1.166,1.607-2.434,3.209-3.699,4.861
						c-0.638,0.824-1.281,1.654-1.931,2.492c-0.641,0.844-1.308,1.678-2.023,2.479c-2.833,3.229-5.602,6.654-8.692,9.764
						c-1.507,1.59-3.011,3.176-4.502,4.75c-1.557,1.508-3.099,3.004-4.617,4.477c-2.966,3.023-6.088,5.678-8.879,8.334l1.028-0.596
						c-1.081,1-1.994,1.855-2.814,2.57c-0.849,0.68-1.569,1.26-2.207,1.771c-1.288,1.012-2.266,1.732-3.276,2.469
						c-1.021,0.723-2.026,1.525-3.493,2.535c-1.468,1.008-3.323,2.32-5.927,4.23l0.353-0.314c-1.94,1.736-4.824,3.641-7.811,5.539
						c2.603-1.98-5.431,2.877-1.986,0.324c-0.656,0.453-1.25,0.861-1.789,1.232c-0.554,0.348-1.052,0.66-1.501,0.941
						c-0.895,0.566-1.592,1.01-2.149,1.363c-1.11,0.715-1.648,1.088-2.063,1.404c-0.408,0.328-0.713,0.572-1.328,1.066
						c-0.623,0.486-1.555,1.236-3.35,2.357l-1.904,0.559c-1.202,0.803-1.838,1.273-2.887,1.92c-1.056,0.637-2.486,1.529-5.435,2.867
						c4.695-2.473-3.994,1.186,1.23-1.639c-3.168,1.209-5.866,2.375-8.237,3.469c-2.397,1.035-4.49,1.939-6.375,2.752
						c-1.889,0.803-3.535,1.611-5.163,2.105c-1.619,0.52-3.15,0.91-4.712,1.125c-2.777,1.482,0.035,0.68,3.151-0.33
						c3.14-0.939,6.438-2.441,4.867-1.668c1.417-0.379,0.292,0.271-1.694,1.201c-2.013,0.855-4.917,1.904-6.951,2.545
						c-1.03,0.342-2.008,0.584-3.054,0.807c-1.046,0.225-2.188,0.34-3.511,0.559c-1.325,0.209-2.844,0.475-4.683,0.873
						c-0.92,0.199-1.919,0.434-3.015,0.709c-1.109,0.227-2.317,0.482-3.639,0.791c1.055-0.238,1.107-0.33,2.157-0.566
						c-2.01,0.328-3.926,0.861-5.963,1.402c-1.018,0.27-2.065,0.541-3.168,0.789c-1.112,0.201-2.281,0.361-3.527,0.479
						c-2.64,1.102-6.372,1.102-7.043,2.025l9.796-1.936c-2.764,0.598-5.412,1.359-8.538,2.121c-1.557,0.422-3.261,0.652-5.143,0.938
						c-1.884,0.266-3.959,0.502-6.289,0.686c0.706-0.25,3.438-0.809,5.314-1.166c-1.368,0.057-2.665,0.26-3.976,0.465
						c-1.31,0.209-2.633,0.428-4.057,0.387c0.181-0.229,1.031-0.352,2.282-0.58c1.251-0.223,2.913-0.449,4.739-0.691
						c1.825-0.246,3.816-0.49,5.715-0.787c1.888-0.377,3.688-0.773,5.147-1.188c-1.468,0.068-4.243,0.785-6.329,1.135
						c-2.086,0.342-3.443,0.527-1.996-0.088c-2.088,0.814-4.752,1.117-7.78,1.436c-3.044,0.186-6.454,0.33-10.097,1.031l0.457-0.512
						c-1.152,0.207-3.552,0.482-5.694,0.518l3.846-0.711c-5.925,0.654-11.45-0.061-17.131-0.043c5.955,0.16,6.624,0.285,6.434,0.463
						c-0.19,0.193-1.246,0.453,1.283,0.563c-1.843,0.162-3.36,0.113-4.633,0.102c-1.273-0.023-2.304-0.07-3.175-0.133
						c-1.743-0.127-2.852-0.324-4.013-0.533c-1.162-0.182-2.37-0.498-4.313-0.775c-1.942-0.299-4.625-0.523-8.721-0.852
						c2.215,0.176,8.311,0.938,4.816,0.908c-1.558-0.188-3.373-0.328-5.017-0.635c-1.645-0.299-3.134-0.598-4.071-0.842
						c-10.825-1.275,1.597,0.695-3.048,0.398c-3.616-0.982-5.331-0.59-10.101-1.221l0.056-0.48
						c-1.525-0.311-2.722-0.539-3.672-0.701c-0.941-0.203-1.634-0.346-2.163-0.428c-1.057-0.168-1.448-0.131-1.802-0.088
						c-0.706,0.086-1.265,0.199-6.699-1.246l4.782,0.416c0,0-1.434-0.287-2.868-0.572c-0.717-0.145-1.435-0.287-1.973-0.395
						c-0.532-0.135-0.886-0.223-0.886-0.223s0.325-0.051,0.649-0.102c0.323-0.045,0.652-0.115,0.652-0.115
						c-3.111-0.641-5.132-1.16-7.124-1.713c-0.995-0.279-1.981-0.574-3.09-0.916s-2.308-0.828-3.773-1.352
						c1.267,0.787-1.042,0.572-6.291-1.188c-3.442-1.559,2.109,0.369-5.203-2.418c0.876,0.184,1.797,0.363,2.874,0.705
						c0.539,0.17,1.114,0.387,1.748,0.652c0.643,0.24,1.341,0.539,2.109,0.916c0.383-0.035,1.748,0.271,2.137,0.24
						c-3.758-1.494-9.486-3.609-12.126-4.621c1.004,0.416,2.204,0.916,2.798,1.225c0,0-0.673-0.221-1.684-0.551
						c-1.006-0.34-2.367-0.754-3.701-1.234c-2.65-1.014-5.3-2.029-5.3-2.029c-1.552-0.9-0.199-0.449,1.135-0.002
						c-1.055-0.449-1.968-0.785-3.004-1.18c-1.034-0.4-2.209-0.818-3.708-1.596c0.956,0.033,0.913-0.348,5.337,1.422
						c0,0-0.624-0.252-1.56-0.629c-0.938-0.375-2.191-0.871-3.402-1.459c-2.445-1.131-4.891-2.262-4.891-2.262
						c-0.281-0.24-1.457-0.973-2.396-1.582c-0.949-0.592-1.607-1.16-0.976-0.861c-2.521-1.596-5.796-3.219-9.249-5.049
						c-1.689-0.977-3.43-1.988-5.156-3.039c-1.719-1.061-3.461-2.104-5.006-3.35c-0.378-0.176-1.092-0.594-2.498-1.525
						c-1.493-1.109-2.943-2.189-4.39-3.266c-1.392-1.146-2.779-2.289-4.2-3.459s-2.912-2.318-4.456-3.547
						c-1.51-1.27-3.116-2.568-4.872-3.912c0,0-0.829-0.949-1.658-1.9c-0.844-0.93-1.614-1.936-1.614-1.936
						c-5.105-4.648,4.309,5.332-4.208-2.424c-3.033-2.736-3.485-3.363-3.397-3.59c0.075-0.215,0.643,0.01-0.272-1.092
						c-1.521-1.34-3.629-3.16-5.955-5.377c-2.298-2.242-4.65-5.031-6.903-8.027C111.627,396.662,112.821,398.197,114.376,399.914z
						 M71.156,326.989c0.315,0.765,0.788,1.911,1.238,3.004c0.485,1.08,0.905,2.124,0.994,2.737
						c-0.604-0.777-0.979-1.531-1.313-2.424C71.766,329.404,71.538,328.35,71.156,326.989z M64.822,198.885
						c-0.183,1.229-0.646,3.082-1.322,5.14C63.827,202.493,64.201,200.755,64.822,198.885z M351.336,42.938
						c-0.07-0.014-0.12-0.024-0.178-0.035C347.649,41.517,348.892,42.015,351.336,42.938z M358.607,45.811
						c0.756,0.225,0.729,0.143,0.444-0.042c-0.554-0.082-2.183-0.732-4.039-1.477C355.494,44.594,356.396,45.061,358.607,45.811z
						 M331.816,471.609l-1.51,0.219C333.615,470.922,332.71,471.26,331.816,471.609z"/>
					<path fill="#161616" d="M62.273,213.447c-0.163,0.447-0.274,0.559-0.382,0.65C61.855,214.755,61.945,214.785,62.273,213.447z"
						/>
					<path fill="#161616" d="M154.118,434.773l0.208,0.154c0.132,0.059,0.211,0.078,0.263,0.08L154.118,434.773z"/>
					<path fill="#161616" d="M240.313,38.314c-1.566,0.209-2.451,0.277-3.044,0.291C237.205,38.736,237.931,38.708,240.313,38.314z"
						/>
					<path fill="#161616" d="M396.087,63.465c0,0-0.269-0.163-0.671-0.407c-0.399-0.25-0.94-0.569-1.498-0.86
						C392.813,61.6,391.709,61,391.709,61c2.114,1.197,2.829,1.691,3.809,2.437C395.482,63.281,394.761,62.625,396.087,63.465z"/>
					<path fill="#161616" d="M428.703,92.011c0.564,0.457,1.116,1.056,1.675,1.505l0.011-0.299
						C428.141,91.094,426.459,89.739,428.703,92.011z"/>
					<path fill="#161616" d="M399.132,67.321c0.056,0.277,0.76,0.808,1.822,1.498c0.537,0.336,1.156,0.723,1.826,1.142
						c0.654,0.442,1.358,0.918,2.081,1.407c-0.171-0.121-0.333-0.236-0.503-0.358c0.58,0.064,0.085-0.404-0.946-1.138
						C402.372,69.149,400.736,68.251,399.132,67.321z"/>
					<path fill="#161616" d="M405.528,71.825c0.888,0.608,1.79,1.236,2.637,1.862C408.631,73.739,407.125,72.89,405.528,71.825z"/>
					<path fill="#161616" d="M367.885,49.32c1.475,0.781,1.162-0.044,1.955,0.496c0.955,0.148-1.645-0.856-3.423-1.454
						c-0.884-0.313-1.587-0.465-1.521-0.375C364.968,48.065,365.786,48.434,367.885,49.32z"/>
					<polygon fill="#161616" points="400.772,69.961 400,68.871 398.139,68.157 					"/>
					<path fill="#161616" d="M377.214,55.919l4.882,2.656c-0.035-0.112,0.616,0.166,1.405,0.528
						C380.462,57.527,377.163,55.727,377.214,55.919z"/>
					<path fill="#161616" d="M383.501,59.103c1.573,0.843,3.027,1.719,3.935,2.13C386.59,60.769,384.802,59.708,383.501,59.103z"/>
					<path fill="#161616" d="M394.308,65.995c0,0-0.332-0.244-0.663-0.487c-0.329-0.247-0.668-0.479-0.668-0.479l-3.378-1.984
						c0,0,1.187,0.723,2.373,1.446C393.173,65.189,394.308,65.995,394.308,65.995z"/>
					<path fill="#161616" d="M320.837,36.665l-5.997-0.925c-0.637,0.061,0.972,0.455,3.204,0.784
						C319.492,36.661,321.722,36.991,320.837,36.665z"/>
					<path fill="#161616" d="M338.307,42.25c-1.54-0.545-1.617-0.684-2.459-1.094l-0.338,0.549L338.307,42.25z"/>
					<path fill="#161616" d="M321.188,38.269c-0.629,0.063-8.689-1.049-1.177,0.252c0.315-0.026,1.967,0.174,2.856,0.277
						c0.442,0.064,0.697,0.085,0.507,0.004C323.186,38.713,322.548,38.532,321.188,38.269z"/>
					<polygon fill="#161616" points="230.842,38.423 232.339,38.069 231.913,37.123 					"/>
					<path fill="#161616" d="M158.535,71.397c6.105-3.607,1.064-1.468,6.66-4.616c0.667-0.506-0.528,0.05-1.645,0.729
						c-1.13,0.656-2.256,1.313-1.59,0.763C158.481,70.807,156.511,71.898,158.535,71.397z"/>
					<path fill="#161616" d="M161.96,68.274c0.554-0.413,1.14-0.85,1.765-1.315C162.71,67.686,162.243,68.043,161.96,68.274z"/>
					<path fill="#161616" d="M501.911,267.445c0,0,0.035-0.29,0.088-0.725c0.064-0.435,0.105-1.017,0.145-1.599
						c0.082-1.165,0.165-2.33,0.165-2.33l-0.419,2.997c0,0,0.025,0.415,0.02,0.829C501.91,267.031,501.911,267.445,501.911,267.445z
						"/>
					<path fill="#161616" d="M501.449,258.481l0.677-1.087l-0.518-2.799C501.611,255.646,501.616,257.686,501.449,258.481z"/>
					<path fill="#161616" d="M68.589,314.533l-0.245-0.291c0.03,0.723,0.309,1.751,0.866,3.811L68.589,314.533z"/>
					<polygon fill="#161616" points="93.199,370.836 92.637,369.936 93.213,371.922 					"/>
					<path fill="#161616" d="M126.215,410.5c-0.745-0.744-1.624-1.484-2.431-2.301c-0.811-0.813-1.622-1.625-2.344-2.4
						C124.638,409.094,126.136,411.4,126.215,410.5z"/>
				</g>
			</g>
		</g>
	</g>
</g>
</svg>
